<?xml version='1.0' encoding='utf-8'?>
<svg xmlns="http://www.w3.org/2000/svg" enable-background="new 0 0 460 460" version="1.1" viewBox="0 0 460 460"> <path d="m111.41 240c-4.333 0-8.173-2.791-9.511-6.912s0.13-8.635 3.637-11.181l223.93-162.56c-5.254-3.069-10.655-5.913-16.204-8.496-2.156 4.957-7.876 7.322-12.914 5.282-22.348-9.052-46.018-13.641-70.352-13.641-103.4 0-187.51 84.118-187.51 187.51 0 41.95 13.54 81.61 39.154 114.69 3.328 4.297 2.599 10.442-1.587 13.859 3.401 3.963 6.954 7.792 10.654 11.474l93.459-130.03h-72.754z" fill="#fff"/> <path d="m159.65 403.87c22.347 9.05 46.015 13.639 70.346 13.639 103.4 0 187.51-84.118 187.51-187.51 0-41.947-13.538-81.605-39.15-114.69-3.326-4.296-2.598-10.44 1.585-13.857-3.402-3.965-6.962-7.789-10.664-11.471l-93.451 130.02h72.754c4.333 0 8.173 2.791 9.511 6.912s-0.13 8.635-3.637 11.181l-223.93 162.57c5.256 3.07 10.667 5.901 16.217 8.485 2.16-4.949 7.874-7.309 12.909-5.271z" fill="#fff"/> <path d="m81.641 344.69c-25.615-33.083-39.154-72.743-39.154-114.69 0-103.4 84.118-187.51 187.51-187.51 24.334 0 48.004 4.589 70.352 13.641 5.038 2.04 10.758-0.325 12.914-5.282 0.034-0.079 0.076-0.152 0.108-0.233 2.073-5.119-0.396-10.949-5.515-13.022-24.744-10.023-50.939-15.104-77.859-15.104-114.42 0-207.51 93.09-207.51 207.51 0 46.423 14.987 90.317 43.341 126.94 1.971 2.545 4.926 3.878 7.914 3.878 2.138 0 4.293-0.683 6.115-2.094 0.07-0.054 0.13-0.115 0.198-0.17 4.185-3.416 4.914-9.561 1.586-13.858z"/> <path d="m394.18 103.07c-3.382-4.368-9.662-5.167-14.029-1.786-0.07 0.054-0.132 0.116-0.2 0.172-4.184 3.417-4.912 9.561-1.585 13.857 25.612 33.082 39.15 72.74 39.15 114.69 0 103.4-84.118 187.51-187.51 187.51-24.332 0-48-4.589-70.346-13.639-5.035-2.038-10.749 0.322-12.909 5.271-0.036 0.083-0.079 0.16-0.113 0.244-2.073 5.119 0.396 10.949 5.515 13.022 24.743 10.021 50.937 15.102 77.854 15.102 114.42 0 207.51-93.09 207.51-207.51-1e-3 -46.42-14.986-90.312-43.337-126.93z"/> <path d="M89.868,405.463L317.79,240h-61.46c-3.751,0-7.187-2.099-8.898-5.438 c-1.711-3.338-1.411-7.353,0.778-10.399L370.132,54.537L142.21,220h61.46c3.751,0,7.187,2.099,8.898,5.438 c1.711,3.338,1.411,7.353-0.778,10.399L89.868,405.463z" fill="#FCC324"/> <path d="m358.1 226.91c-1.338-4.121-5.178-6.912-9.511-6.912h-72.754l146.75-204.16c2.865-3.986 2.413-9.461-1.066-12.924-3.479-3.462-8.956-3.888-12.929-1.004l-303.04 220c-3.507 2.545-4.975 7.06-3.637 11.181s5.178 6.912 9.511 6.912h72.754l-93.458 130.02-53.289 74.138c-2.865 3.986-2.413 9.461 1.066 12.924 1.935 1.926 4.488 2.912 7.057 2.912 2.05 0 4.109-0.628 5.872-1.908l79.112-57.433 223.93-162.57c3.507-2.545 4.975-7.059 3.637-11.18zm-145.53-1.474c-1.711-3.338-5.147-5.438-8.898-5.438h-61.46l227.92-165.46-121.92 169.63c-2.189 3.046-2.49 7.061-0.778 10.399 1.711 3.338 5.147 5.438 8.898 5.438h61.46l-227.92 165.46 121.92-169.63c2.19-3.046 2.49-7.062 0.778-10.399z"/> </svg>